IKResults
version=1
nRows=13
nColumns=40
inDegrees=yes

Units are S.I. units (second, meters, Newtons, ...)
Angles are in degrees.

endheader
time	pelvis_tilt	pelvis_list	pelvis_rotation	pelvis_tx	pelvis_ty	pelvis_tz	hip_flexion_r	hip_adduction_r	hip_rotation_r	knee_angle_r	knee_angle_r_beta	ankle_angle_r	subtalar_angle_r	mtp_angle_r	hip_flexion_l	hip_adduction_l	hip_rotation_l	knee_angle_l	knee_angle_l_beta	ankle_angle_l	subtalar_angle_l	mtp_angle_l	lumbar_extension	lumbar_bending	lumbar_rotation	arm_flex_r	arm_add_r	arm_rot_r	elbow_flex_r	pro_sup_r	wrist_flex_r	wrist_dev_r	arm_flex_l	arm_add_l	arm_rot_l	elbow_flex_l	pro_sup_l	wrist_flex_l	wrist_dev_l
      0.59000000	     -1.79833641	      7.22949572	      2.12472019	      0.19067161	      0.96723171	      0.25387007	    -21.22130471	     -2.42638746	     -2.86830729	    -36.76712721	     -0.64170743	    -20.68790825	    -14.71039377	     20.54511527	     33.92134547	    -10.53167299	     16.57203822	    -26.77634322	     -0.46733535	    -10.89159012	      4.94085776	      4.69326928	    -11.27647378	     -8.19459995	      9.72440652	    -13.56584031	    -27.45565697	     14.02844496	    134.14003173	     89.95437384	      0.00000000	      0.00000000	    -43.15753373	     24.40349105	      3.51047576	    124.35994936	     89.95437384	      0.00000000	      0.00000000
      0.60000000	     -1.09653100	      6.81954605	      2.47114836	      0.22967434	      0.96545240	      0.25579091	    -20.50603906	     -1.83326407	     -2.90599121	    -39.64104626	     -0.69186678	    -18.93454230	    -15.43564142	     19.92833728	     31.80602085	    -10.31552375	     16.67685387	    -26.33116887	     -0.45956559	    -11.84814512	      4.23335841	      4.60818834	    -12.14402098	     -8.10355698	      9.05147332	    -14.17654511	    -27.15514324	     13.67687428	    132.61408403	     89.95437384	      0.00000000	      0.00000000	    -42.09748492	     24.39921363	      2.89159726	    124.33612091	     89.95437384	      0.00000000	      0.00000000
      0.61000000	     -0.47186818	      7.11571858	      2.30220849	      0.26912181	      0.96302505	      0.25797639	    -19.51977059	     -2.19802329	     -2.62644405	    -42.81250041	     -0.74721909	    -16.59249980	    -16.55525298	     19.73812952	     29.23946113	    -10.68301746	     16.86587206	    -25.26664173	     -0.44098609	    -13.18857113	      2.88603634	      4.39821415	    -12.83346435	     -8.87851205	      8.99632031	    -15.36169098	    -26.40649436	     12.71674865	    130.87802529	     89.95437384	      0.00000000	      0.00000000	    -40.55768009	     24.77570905	      1.89828830	    124.10783060	     89.95437384	      0.00000000	      0.00000000
      0.62000000	      0.49427722	      7.18013875	      2.12073713	      0.30854829	      0.95997218	      0.26039219	    -18.68742611	     -2.44978506	     -2.65088416	    -46.06383424	     -0.80396557	    -14.43622169	    -17.02277056	     21.14139764	     26.38436623	    -10.89049512	     16.27468845	    -25.00853548	     -0.43648129	    -13.09408035	      3.31605923	      3.97619119	    -13.90572060	     -9.41006474	      8.67807638	    -16.20654290	    -25.77434337	     11.99824461	    128.94604384	     89.95437384	      0.00000000	      0.00000000	    -39.06512392	     24.92691614	      1.05445928	    123.94813265	     89.95437384	      0.00000000	      0.00000000
      0.63000000	      1.24803899	      6.80524999	      2.10056488	      0.34796209	      0.95544442	      0.26311224	    -17.46726712	     -2.16235585	     -2.52970504	    -49.33703682	     -0.86109374	    -12.64596078	    -17.79135347	     20.61042021	     23.96414460	    -10.58506196	     15.16634978	    -25.68110938	     -0.44821991	    -13.00725362	      3.64199923	      3.89779398	    -14.68239533	     -9.48662056	      8.22374190	    -17.05198807	    -24.99954899	     11.32208507	    126.79612775	     89.95437384	      0.00000000	      0.00000000	    -37.65361101	     25.14111896	      0.37060099	    123.88574021	     89.95437384	      0.00000000	      0.00000000
      0.64000000	      1.67563045	      6.53606415	      1.95656368	      0.38677506	      0.94948905	      0.26577918	    -15.47458823	     -2.23587023	     -2.53395217	    -53.11784649	     -0.92708131	    -10.76552970	    -18.03902243	     20.80747191	     21.82996171	    -10.66759149	     12.53253121	    -26.39704752	     -0.46071539	    -13.18266439	      5.85061730	      4.09822510	    -15.15165927	     -9.70326164	      7.88634379	    -18.05569314	    -24.04826751	     10.32059701	    124.59971939	     89.95437384	      0.00000000	      0.00000000	    -35.95507594	     25.41294264	     -0.51664339	    123.77440333	     89.95437384	      0.00000000	      0.00000000
      0.65000000	      2.41903366	      6.21439768	      1.65017596	      0.42590683	      0.94287573	      0.26842208	    -13.72734106	     -2.30422036	     -2.32185242	    -56.81635606	     -0.99163248	     -8.56058371	    -18.30151562	     20.02172869	     18.94097404	    -10.73042991	      9.08372347	    -26.81686454	     -0.46804258	     -8.68843946	      3.16292113	      3.52893355	    -15.88568885	     -9.85333858	      7.22670823	    -18.58278726	    -23.46271380	     10.01329377	    122.18829151	     89.95437384	      0.00000000	      0.00000000	    -34.69516854	     25.38729529	     -0.98154800	    123.92970736	     89.95437384	      0.00000000	      0.00000000
      0.66000000	      3.17596364	      5.98747248	      1.40033186	      0.46479618	      0.93536333	      0.27052062	    -11.72772989	     -2.64898840	     -2.34512080	    -60.73862277	     -1.06008895	     -6.39890597	    -18.34521595	     19.21700430	     16.09502422	    -10.80946231	      6.40058370	    -28.31301323	     -0.49415530	     -2.47023242	      0.71551350	      2.61616903	    -16.65660265	    -10.03072304	      6.36845275	    -19.18443652	    -22.84566558	      9.42932302	    119.85918224	     89.95437384	      0.00000000	      0.00000000	    -33.33663652	     25.42194948	     -1.48627713	    124.19151236	     89.95437384	      0.00000000	      0.00000000
      0.67000000	      3.18703630	      5.05708711	      1.40205974	      0.50222498	      0.92592840	      0.27269703	     -8.32975986	     -2.11707098	     -2.23020699	    -65.23328593	     -1.13853562	     -3.98891578	    -18.23770492	     18.77463543	     14.77805569	    -10.07934159	      4.63919213	    -31.90679867	     -0.55687869	      4.38670635	     -0.24155423	      1.66340556	    -16.69561910	     -9.41997869	      5.37858402	    -19.74058964	    -22.44928289	      8.83794312	    117.72001367	     89.95437384	      0.00000000	      0.00000000	    -31.85821702	     25.45372724	     -2.11448197	    124.48841955	     89.95437384	      0.00000000	      0.00000000
      0.68000000	      4.10859853	      4.74697183	      0.96739941	      0.53976914	      0.91792486	      0.27482442	     -5.72951867	     -2.38061046	     -1.89711854	    -69.53112555	     -1.21354707	     -2.02602755	    -18.34415876	     18.10448922	     12.25806928	     -9.98970165	      3.52162962	    -34.49691416	     -0.60208473	      9.64121468	     -0.79285654	      0.88338417	    -17.81136982	     -9.46006854	      4.20975425	    -20.06327358	    -22.30561697	      8.44343511	    115.91692543	     89.95437384	      0.00000000	      0.00000000	    -30.43916409	     25.39531957	     -2.45487075	    125.07133443	     89.95437384	      0.00000000	      0.00000000
      0.69000000	      4.73430910	      4.36200304	      0.68428463	      0.57617750	      0.91006924	      0.27627154	     -2.38966901	     -2.54786966	     -1.55473655	    -73.92350118	     -1.29020849	     -0.20968452	    -18.34934543	     17.50856655	      9.99519726	     -9.86146386	      3.15830547	    -36.67427100	     -0.64008678	     13.99375832	     -0.56681782	      0.12765531	    -18.74827929	     -9.28182080	      2.75411856	    -20.43579509	    -22.27582427	      7.97620758	    114.65347273	     89.95437384	      0.00000000	      0.00000000	    -28.85474296	     25.28980261	     -2.84918899	    125.73573772	     89.95437384	      0.00000000	      0.00000000
      0.70000000	      4.02097059	      4.11031805	      0.45421487	      0.61035863	      0.90180860	      0.27740020	      3.13775261	     -2.77805018	     -0.99009160	    -78.62313954	     -1.37223265	      1.39415193	    -18.26598100	     17.46537112	      9.15710714	    -10.03748883	      2.65118725	    -38.61457151	     -0.67395141	     17.31100347	      1.45745954	     -1.44683382	    -18.49313472	     -9.20467906	      1.23377803	    -21.01312508	    -22.38390974	      7.36500842	    113.85281444	     89.95437384	      0.00000000	      0.00000000	    -26.98062577	     25.29845367	     -3.27054754	    126.51700621	     89.95437384	      0.00000000	      0.00000000
      0.71000000	      4.20384261	      3.70747778	      0.09293275	      0.64592893	      0.89752236	      0.27845911	      7.41297407	     -2.73343389	     -0.42388227	    -81.98963509	     -1.43098908	      2.22487645	    -18.18522241	     17.73114695	      6.31667554	     -9.76812948	      2.65012763	    -38.83027969	     -0.67771623	     19.64412123	      1.98558544	     -3.19672950	    -19.05163102	     -8.81384962	     -0.28735237	    -21.86973413	    -22.61123753	      6.68483997	    113.69295581	     89.95437384	      0.00000000	      0.00000000	    -25.25678521	     25.20890197	     -3.55385624	    127.46845983	     89.95437384	      0.00000000	      0.00000000
